# xmcd
#
# Track frame offsets:
#	150
#	17836
#	40749
#	69337
#	96044
#	115706
#	135170
#	153714
#	173101
#	190358
#	207707
#	241622
#	259690
#
# Disc length: 3810 seconds
#
# Revision: 1
# Processed by: cddbd v1.5.2PL0 Copyright (c) Steve Scherf et al.
# Submitted via: audiograbber 1.83.01
#
DISCID=a80ee00d
DTITLE=Sonny Moorman Group - Lucky 13
DYEAR=2014
DGENRE=Blues
TTITLE0=Ol' Gunslinger
TTITLE1=Deal with the devil
TTITLE2=You quit on me,baby
TTITLE3=Go
TTITLE4=Macon
TTITLE5=Winter
TTITLE6=I am
TTITLE7=Half the money
TTITLE8=Tore up
TTITLE9=Cherokee Rose
TTITLE10=Tell Mama
TTITLE11=Take the motorway
TTITLE12=Statesboro Blues (bonustrack recorded live at the Berks Jazz Fest Warm
TTITLE12=up March 10,2012)
EXTD=
EXTT0=
EXTT1=
EXTT2=
EXTT3=
EXTT4=
EXTT5=
EXTT6=
EXTT7=
EXTT8=
EXTT9=
EXTT10=
EXTT11=
EXTT12=
PLAYORDER=
